<svg width="150" height="150" viewBox="0 0 150 150" fill="none" xmlns="http://www.w3.org/2000/svg">
<g clip-path="url(#clip0_344_703)">
<path fill-rule="evenodd" clip-rule="evenodd" d="M75 100.754C115.203 100.754 147.795 89.2244 147.795 74.9999C147.795 60.7762 115.203 49.2458 75 49.2458C34.7974 49.2458 2.20615 60.7762 2.20615 74.9999C2.20537 89.2236 34.7974 100.754 75 100.754Z" fill="black"/>
<path fill-rule="evenodd" clip-rule="evenodd" d="M74.9852 100.243C114.389 100.243 146.862 88.9412 146.862 75C146.862 61.0596 114.389 49.7588 74.9852 49.7588C35.5825 49.7588 2.961 61.0596 2.961 75C2.961 88.9412 35.5825 100.243 74.9852 100.243Z" fill="white"/>
<path fill-rule="evenodd" clip-rule="evenodd" d="M142.7 81.3664C139.49 84.722 135.597 86.9273 131.579 88.7078C119.75 93.9092 106.632 96.3652 93.1862 98.0538C71.6764 100.644 49.5354 98.3231 30.1742 93.1676C21.5301 90.7342 12.9109 87.4923 6.76944 80.3991C5.48077 78.6194 3.98898 76.8413 4.06525 74.5441L4.34306 73.7783C4.41932 74.1168 4.59597 74.4764 4.94927 74.6795C5.65742 74.9946 6.74454 74.6569 7.1741 75.3775C7.47759 76.2102 7.24958 77.2467 7.80599 77.9883C9.5499 81.3898 13.0377 84.9025 16.854 86.6806C27.0653 92.1762 38.6665 94.6524 50.5463 96.5449C67.7076 99.2242 87.4486 98.7978 104.256 95.7348C113.937 94.0236 123.44 91.9287 131.983 87.7405C136.028 85.9165 139.364 82.2676 141.385 78.7774C142.196 77.2911 142.852 75.7378 142.827 73.9137C142.878 73.7106 142.978 73.418 143.283 73.3955C144.015 73.1698 145.202 73.6881 145.406 72.6974L145.532 72.292C147.3 75.5783 145.151 78.9112 142.7 81.3664Z" fill="black"/>
<path fill-rule="evenodd" clip-rule="evenodd" d="M141.891 73.709C141.968 76.7937 140.198 79.2489 138.403 81.6589C135.724 84.9468 131.907 87.0619 128.041 88.3918C131.503 86.5452 135.624 84.3382 137.874 80.8924C139.315 78.7298 140.755 76.5455 140.679 73.821C141.032 73.7541 141.487 73.7767 141.891 73.709ZM9.11955 75.3533C9.72653 79.3174 12.7342 82.7173 16.5504 85.1942L19.2803 86.9498C14.4019 85.1032 9.42304 80.8932 8.10869 76.277L7.98184 75.172L9.11955 75.3533Z" fill="black"/>
<path fill-rule="evenodd" clip-rule="evenodd" d="M74.9113 96.6622C110.577 96.6622 139.49 86.6812 139.49 74.3703C139.49 62.0587 110.577 52.0776 74.9113 52.0776C39.2463 52.0776 10.3328 62.0587 10.3328 74.3703C10.3328 86.6812 39.2463 96.6622 74.9113 96.6622Z" fill="black"/>
<path fill-rule="evenodd" clip-rule="evenodd" d="M74.8451 94.9192C109.378 94.9192 137.373 85.7677 137.373 74.4794C137.373 63.191 109.378 54.0396 74.8451 54.0396C40.3124 54.0396 12.3171 63.191 12.3171 74.4794C12.3171 85.7677 40.3124 94.9192 74.8451 94.9192Z" fill="white"/>
<path fill-rule="evenodd" clip-rule="evenodd" d="M74.8452 93.2196C108.324 93.2196 135.467 84.83 135.467 74.4793C135.467 64.1295 108.324 55.7383 74.8452 55.7383C41.3653 55.7383 14.2237 64.1295 14.2237 74.4793C14.2229 84.83 41.3653 93.2196 74.8452 93.2196Z" fill="#838383"/>
<path fill-rule="evenodd" clip-rule="evenodd" d="M66.2509 59.7539L76.2054 61.0674C81.2971 61.7445 87.2183 61.8884 92.1489 60.7391C92.7022 60.7188 93.4165 60.5134 93.8539 60.9032C94.085 61.0877 94.1301 61.3344 94.0624 61.6013C93.8313 62.6075 92.6111 63.2845 91.6882 63.7771C87.3568 65.9941 81.2737 65.0292 76.6186 64.0642L69.0842 62.2985H69.0617C68.9924 62.5857 69.1301 62.9553 68.9465 63.202C66.0205 64.7825 63.3241 67.3692 61.6424 69.9567C63.3015 69.8952 65.0065 69.8337 66.5964 69.5255C66.366 68.3147 66.8267 67.1855 67.9325 66.426C68.5317 66.0766 69.292 65.872 70.0064 66.0362C70.5138 66.2004 70.9511 66.6517 71.0896 67.1038C71.3433 68.0275 70.9278 68.8898 70.1908 69.5263C69.6842 69.9162 69.1309 70.2244 68.5317 70.4088L68.5551 70.4703C68.9698 70.7987 69.4998 71.0453 69.822 71.4562C69.8327 71.5225 69.8278 71.5905 69.8078 71.6546C69.7879 71.7187 69.7533 71.7774 69.7068 71.8259C69.5231 72.0103 69.292 72.0103 69.0391 72.0313C68.1862 71.9698 67.6796 71.2103 67.0804 70.6975C65.0065 70.9846 62.8634 71.1691 60.7203 71.3341L59.3608 73.0585L55.6738 78.1899C52.7703 82.0917 48.4156 86.6285 42.5862 85.9912C39.8672 85.7453 37.0097 83.9593 36.2269 81.5579C35.167 78.5393 36.8953 75.7471 39.5451 73.9207C40.5357 73.3044 41.7108 72.9153 42.9784 73.0585C43.2547 73.12 43.5309 73.3044 43.6461 73.5511C43.7154 73.7565 43.7154 74.0235 43.5776 74.1674C42.4485 75.1324 40.9046 75.6872 40.1209 76.979C39.4758 77.9658 39.2688 79.505 40.0524 80.4902C41.2734 81.9687 43.5543 82.1936 45.3978 81.6606C50.3517 80.1205 53.8769 75.3985 57.0115 71.7862C55.2605 71.9504 53.5314 72.2578 52.1493 73.2437C52.0108 73.3052 51.7805 73.3464 51.6194 73.264C51.4116 73.1612 51.3891 72.9558 51.3431 72.7714C51.4583 71.8274 52.6334 71.4376 53.4396 71.1294C54.9835 70.5956 56.7119 70.4516 58.3702 70.1855C60.7436 67.0447 64.177 63.8829 67.864 62.1172C61.8961 60.8651 53.0707 59.0372 48.6234 64.1911C48.0475 64.9304 47.6553 65.8743 47.9783 66.8182C48.3471 67.5163 49.13 67.9061 49.9603 67.9474C52.2637 67.9886 53.8544 66.2432 55.3749 64.7856C55.536 64.6829 55.7438 64.5802 55.9741 64.6417C56.1586 64.6829 56.2504 64.8681 56.3196 64.9903C56.3663 66.4486 55.2823 67.5357 54.3384 68.6446C52.4023 70.5535 49.7525 71.8469 46.8725 71.0259C45.3285 70.5948 44.2227 69.1372 44.0842 67.7412C43.7387 64.9288 45.7433 62.5063 48.4156 61.234C52.4941 59.1399 57.7017 58.8932 62.7015 59.3858L66.2509 59.7539Z" fill="white"/>
<path fill-rule="evenodd" clip-rule="evenodd" d="M103.119 82.2535C102.958 82.6441 102.682 83.1149 102.958 83.5671C103.096 83.7313 103.28 83.9367 103.534 83.9772C104.524 84.0589 105.285 83.5258 106.068 83.0332C107.45 82.0076 108.718 80.7142 110.008 79.5633C110.262 79.3991 110.492 79.1742 110.814 79.2349C111.183 79.3579 111.667 79.6255 111.759 80.0162L111.712 80.1998C109.133 82.6636 106.482 86.0713 102.611 86.3997C101.574 86.4619 100.699 86.1125 100.077 85.3935C99.6623 84.9009 99.5922 84.2441 99.6623 83.6075C97.6577 85.188 95.1683 86.872 92.3808 85.7841C90.745 84.9227 90.2377 83.3009 90.3536 81.6379C90.4462 81.1025 90.6532 80.6107 90.8369 80.0979C89.2011 81.0613 87.3809 82.5188 85.2145 81.6986C84.1779 81.2667 83.6246 80.3033 83.5562 79.3384C83.4861 79.0302 83.5787 78.6816 83.5787 78.3945L78.2785 85.8666L74.8226 85.8471C74.7533 85.8059 74.6382 85.7436 74.6615 85.6619L74.7533 85.3748L80.2831 77.5532C80.5827 76.9361 81.0901 76.1774 80.6512 75.4591C80.2146 75.1097 79.6147 75.4179 79.1765 75.5626C76.8498 76.7315 75.0522 78.9493 73.439 80.7975C71.2733 83.4449 68.3006 86.7919 64.1529 86.1141C62.1942 85.9086 60.858 84.1429 60.4433 82.6044C60.4433 82.5422 60.4199 82.4799 60.374 82.4597C59.4293 83.1787 58.7149 84.1849 57.6784 84.697C57.512 84.7383 57.3381 84.7383 57.1718 84.697C56.757 84.3896 56.6418 83.9585 56.5492 83.5266C56.7111 82.9928 57.3788 82.7881 57.771 82.3772C60.651 79.6458 61.4806 75.5821 65.6742 73.9191C66.7108 73.488 67.8166 73.2211 69.0617 73.2413C69.4072 73.2413 69.7068 73.5082 69.8445 73.7954C69.9768 73.9907 70.1208 74.2981 69.983 74.5347C69.5683 74.9035 68.9457 74.9035 68.4625 75.109C66.089 76.0739 63.7848 78.2295 63.5778 80.5913C63.486 81.5765 63.8081 82.5609 64.8221 83.0963C66.089 83.6706 67.587 83.178 68.601 82.4185C70.4445 80.9197 71.3425 79.052 71.5962 76.9361C71.6655 76.0747 71.3425 75.3556 71.1122 74.5969C71.1122 74.0841 71.688 73.6934 72.1495 73.488C72.495 73.344 73.0483 73.2211 73.3938 73.4468C74.2008 74.186 74.3386 75.1914 74.3845 76.1976C74.3845 76.4848 74.4078 76.7719 74.3386 77.0396C76.6194 75.2949 78.533 72.2149 81.8737 72.6258C82.7033 72.7285 83.4861 73.3853 83.6721 74.1245C83.8091 74.6171 83.7406 75.2319 83.648 75.705C84.9623 74.1448 86.7133 72.6258 89.0175 72.9542C89.8929 73.0771 90.791 73.7541 91.0221 74.5347C91.2983 75.4584 90.952 76.3611 90.2377 77.0178C89.7318 77.4085 89.1786 77.6544 88.4868 77.5937C87.9109 77.5314 87.3802 77.3066 87.058 76.8124C86.7584 76.3821 86.7584 75.6848 87.058 75.2724C86.2977 75.3541 85.8129 76.1354 85.5833 76.7105C85.3296 77.4902 84.9616 78.5781 85.7219 79.2761C86.2277 79.9345 87.2191 79.708 87.9335 79.6045C92.5193 78.2092 95.2609 72.7075 100.745 73.3028C101.735 73.4055 102.727 73.7751 103.21 74.6576C103.395 75.0265 103.556 75.3759 103.625 75.7868L109.916 67.0415L113.787 67.2874L103.119 82.2535Z" fill="white"/>
<path fill-rule="evenodd" clip-rule="evenodd" d="M101.391 75.8895C101.851 76.7105 101.368 77.6544 100.998 78.3945L101.69 78.6194C100.354 80.3641 98.9712 82.6232 96.597 83.4021C96.0678 83.5663 95.2834 83.6076 94.8235 83.3002C94.0632 82.7866 93.9939 81.9033 94.155 81.1026C94.8235 78.6816 96.99 75.807 99.9852 75.3347C100.584 75.2529 101.067 75.4996 101.391 75.8895ZM69.7052 66.9466C69.983 67.1489 69.9075 67.5318 69.857 67.8018C69.5791 68.6127 68.6438 69.0407 67.8344 69.2656C67.6578 68.3193 67.9107 67.3287 68.871 66.8555C69.1239 66.7661 69.5029 66.7661 69.7052 66.9466Z" fill="#838383"/>
</g>
<defs>
<clipPath id="clip0_344_703">
<rect width="150" height="150" fill="white"/>
</clipPath>
</defs>
</svg>
