<svg width="150" height="150" viewBox="0 0 150 150" fill="none" xmlns="http://www.w3.org/2000/svg">
<g clip-path="url(#clip0_347_724)">
<path fill-rule="evenodd" clip-rule="evenodd" d="M40.3303 95.4678C40.3303 102.115 34.953 107.484 28.3143 107.484C21.6748 107.484 16.3054 102.115 16.3054 95.4678C16.3054 88.833 21.6748 83.4589 28.3143 83.4589C34.953 83.4589 40.3303 88.8322 40.3303 95.4678ZM134.172 95.4678C134.172 102.115 128.787 107.484 122.156 107.484C115.517 107.484 110.132 102.115 110.132 95.4678C110.132 88.833 115.517 83.4589 122.156 83.4589C128.787 83.4589 134.172 88.8322 134.172 95.4678ZM46.5815 85.5467C45.0228 85.5467 43.7675 86.8401 43.7675 87.8136V120.342C43.7675 121.314 45.0228 122.62 46.5815 122.62C48.1409 122.62 49.4032 121.314 49.4032 120.342V87.8136C49.4032 86.8401 48.1409 85.5467 46.5815 85.5467ZM56.1189 85.5467C54.575 85.5467 53.3128 86.8401 53.3128 87.8136V120.342C53.3128 121.314 54.5758 122.62 56.1189 122.62C57.6776 122.62 58.9406 121.314 58.9406 120.342V87.8136C58.9406 86.8401 57.6776 85.5467 56.1189 85.5467ZM65.6634 85.5467C64.0969 85.5467 62.8424 86.8401 62.8424 87.8136V120.342C62.8424 121.314 64.0969 122.62 65.6634 122.62C67.2151 122.62 68.4773 121.314 68.4773 120.342V87.8136C68.4773 86.8401 67.2151 85.5467 65.6634 85.5467ZM75.1922 85.5467C73.6413 85.5467 72.3861 86.8401 72.3861 87.8136V120.342C72.3861 121.314 73.6413 122.62 75.1922 122.62C76.7665 122.62 78.0373 121.314 78.0373 120.342V87.8136C78.0373 86.8401 76.7665 85.5467 75.1922 85.5467ZM84.7678 85.5467C83.2083 85.5467 81.9391 86.8401 81.9391 87.8136V120.342C81.9391 121.314 83.2083 122.62 84.7678 122.62C86.3195 122.62 87.5825 121.314 87.5825 120.342V87.8136C87.5825 86.8401 86.3195 85.5467 84.7678 85.5467ZM94.2975 85.5467C92.738 85.5467 91.4843 86.8401 91.4843 87.8136V120.342C91.4843 121.314 92.738 122.62 94.2975 122.62C95.857 122.62 97.1122 121.314 97.1122 120.342V87.8136C97.1122 86.8401 95.857 85.5467 94.2975 85.5467ZM103.842 85.5467C102.282 85.5467 101.019 86.8401 101.019 87.8136V120.342C101.019 121.314 102.282 122.62 103.842 122.62C105.394 122.62 106.655 121.314 106.655 120.342V87.8136C106.656 86.8401 105.394 85.5467 103.842 85.5467Z" fill="#838383"/>
<path fill-rule="evenodd" clip-rule="evenodd" d="M139.709 27.3812L10.2892 27.3968C6.31112 27.3968 6.62317 31.0628 6.62317 31.0628V93.4835C8.24335 84.0075 16.4797 76.7867 26.4124 76.7867H123.76C133.388 76.7867 141.412 83.5546 143.382 92.5784V31.0706C143.382 31.0698 143.382 27.3812 139.709 27.3812Z" fill="#838383"/>
<path fill-rule="evenodd" clip-rule="evenodd" d="M87.6129 47.1854C85.1779 47.1854 83.3826 48.9114 82.9437 51.6646L82.9196 51.8506H91.9248V51.6833C91.7878 49.1332 89.9319 47.1854 87.6129 47.1854ZM63.3669 47.1854C60.918 47.1854 59.1305 48.9114 58.7048 51.6646L58.6745 51.8506H67.6711L67.6633 51.6833C67.5349 49.1332 65.6867 47.1854 63.3669 47.1854ZM113.698 64.9895C111.158 64.9895 109.166 64.0199 107.759 62.1335L107.713 62.0728H107.378V71.4998H100.738V43.4096H107.051V45.8702H107.378L107.437 45.8056C108.753 43.8322 110.732 42.7902 113.165 42.7902C120.062 42.7902 122.511 49.0188 122.511 54.3618C122.513 59.6433 119.791 64.9895 113.698 64.9895ZM98.5713 55.4334H82.9344L82.9437 55.6007C83.0869 58.7266 84.9273 60.5896 87.8634 60.5896C89.7342 60.5896 91.2633 59.6924 91.9248 58.2473H98.1378C96.9449 62.4643 93.1037 64.9895 87.7872 64.9895C80.6909 64.9895 76.2879 60.711 76.2879 53.8287C76.2879 47.6453 81.2613 42.7894 87.6129 42.7894C90.8439 42.7894 93.5528 43.8578 95.4616 45.8539C97.4849 47.9721 98.5938 51.1168 98.5938 54.7377C98.5938 54.9804 98.5791 55.1976 98.5713 55.4334ZM74.3176 55.4334H58.6893V55.6007C58.8184 58.7266 60.6666 60.5896 63.6097 60.5896C65.4735 60.5896 67.0096 59.6924 67.6711 58.2473H73.8849C72.6904 62.4643 68.843 64.9895 63.5342 64.9895C56.4535 64.9895 52.042 60.711 52.042 53.8287C52.042 47.6453 57.0162 42.7894 63.3661 42.7894C66.591 42.7894 69.2905 43.8578 71.2149 45.8539C73.2374 47.9721 74.3331 51.1168 74.3331 54.7377C74.3331 54.9804 74.3261 55.1976 74.3176 55.4334ZM49.7915 55.2629C49.7915 61.8028 46.4982 64.9903 39.714 64.9903C32.8161 64.9903 29.6139 61.5374 29.6139 54.1563V53.0459H36.4666V55.5898C36.4666 57.6053 37.6074 58.7422 39.5848 58.7422C41.5925 58.7422 42.4898 57.5212 42.4898 54.7758V35.413H49.7915V55.2629ZM111.562 47.8017C109.425 47.8017 107.134 49.3495 107.134 53.6653C107.134 57.9165 108.573 59.9702 111.531 59.9702C114.717 59.9702 115.866 56.7189 115.866 53.6653C115.866 50.8358 114.733 47.8017 111.562 47.8017ZM125.768 70.7885C124.542 70.7883 123.366 70.301 122.499 69.4339C121.632 68.5668 121.145 67.3908 121.145 66.1645C121.145 63.6206 123.221 61.5367 125.768 61.5367C128.315 61.5367 130.391 63.6206 130.391 66.1645C130.391 66.7717 130.272 67.373 130.04 67.934C129.807 68.495 129.467 69.0048 129.037 69.4341C128.608 69.8635 128.098 70.2041 127.537 70.4365C126.977 70.6689 126.375 70.7885 125.768 70.7885ZM125.768 62.6962C124.849 62.6988 123.968 63.0651 123.319 63.715C122.669 64.3648 122.302 65.2455 122.3 66.1645C122.3 68.0703 123.859 69.6212 125.768 69.6212C127.677 69.6212 129.236 68.0695 129.236 66.1645C129.234 65.2455 128.867 64.365 128.217 63.7152C127.568 63.0654 126.687 62.699 125.768 62.6962ZM126.505 68.6555L125.753 66.724H124.946V68.6555H123.783V63.7724H125.935C126.567 63.7724 126.902 63.8673 127.206 64.1031C127.51 64.3693 127.715 64.8066 127.715 65.24C127.715 65.6961 127.495 66.1264 127.152 66.3505C127.092 66.4081 127.006 66.4385 126.862 66.4992L127.768 68.6555H126.505ZM125.624 64.6393H124.946V65.8867H125.64C126.278 65.8867 126.536 65.7077 126.536 65.2517C126.536 64.8066 126.293 64.6393 125.624 64.6393Z" fill="white"/>
</g>
<defs>
<clipPath id="clip0_347_724">
<rect width="150" height="150" fill="white"/>
</clipPath>
</defs>
</svg>
