<svg width="236" height="148" viewBox="0 0 236 148" fill="none" xmlns="http://www.w3.org/2000/svg">
<g clip-path="url(#clip0_341_2)">
<path d="M151.119 136.022H159.883V138.051H151.119V136.022ZM5.35565 123.718L4.57233 144.08V144.434C4.57233 146.158 5.08002 146.513 7.82821 146.708V147.651C5.82786 147.497 5.0405 147.458 3.94406 147.458C2.84458 147.458 2.06025 147.497 0.0203857 147.651V146.708C2.76554 146.513 3.15973 146.198 3.23776 144.08L4.0616 124.819V124.587C4.0616 122.779 3.51136 122.388 0.806741 122.232V121.249C2.33385 121.367 2.92261 121.407 4.02208 121.407C5.26756 121.418 6.51257 121.353 7.75018 121.213L15.0442 141.061L22.4568 121.213C24.2251 121.367 25.048 121.407 26.2255 121.407C27.2023 121.407 27.8326 121.367 29.3223 121.249V122.232C26.6562 122.388 26.0644 122.779 26.0644 124.544V124.819L26.4971 144.08C26.5396 146.198 26.8902 146.51 29.7154 146.708V147.651C27.2449 147.416 26.3015 147.335 24.8119 147.335C23.3192 147.335 22.3778 147.412 19.9073 147.651V146.708C22.5734 146.553 23.1621 146.119 23.1621 144.279V144.085L22.8125 123.763L16.3373 141.257L15.8681 142.553L15.3189 144.002L14.8061 145.498L14.3754 146.791H13.7867L13.357 145.537L12.8058 144.002L12.2575 142.474L11.7863 141.102L5.35565 123.718ZM34.8105 136.389C35.2037 131.879 36.6923 129.567 39.2034 129.567C41.754 129.567 43.048 131.763 43.2821 136.389H34.8105ZM39.9117 146.666C36.3417 146.666 34.77 143.92 34.7345 137.801H46.4245C46.3444 131.76 43.8729 128.543 39.2429 128.543C34.539 128.543 31.5952 132.349 31.5952 138.39C31.5952 144.431 34.54 147.96 39.5976 147.96C43.4422 147.96 45.9543 145.566 46.461 141.527H44.8903C44.4201 144.861 42.6944 146.666 39.9117 146.666ZM48.7582 129.994V129.29C50.9926 129.094 52.3282 128.859 53.9354 128.387C54.132 129.84 54.21 130.465 54.288 131.644V132.076C55.1534 129.84 56.8366 128.544 58.8785 128.544C60.8383 128.544 62.2914 129.84 62.2914 131.725C62.2914 132.863 61.6246 133.606 60.6437 133.606C59.7419 133.606 59.0366 133.056 59.0366 132.274C59.0366 132.196 59.0771 132.042 59.1126 131.879L59.1906 131.489V131.132C59.1906 130.583 58.7194 130.191 58.0131 130.191C55.9763 130.191 54.6822 132.662 54.6822 136.546V144.743C54.6822 146.433 55.0724 146.746 57.4669 146.863V147.648C55.3064 147.455 54.4836 147.411 53.1105 147.411C51.6989 147.411 50.8761 147.455 48.7197 147.648V146.863C51.1102 146.746 51.5419 146.433 51.5419 144.743V131.92C51.5044 130.232 51.3058 130.038 49.2689 129.997L48.7582 129.994ZM77.2981 128.193V134.667H76.4327C75.7264 131.251 74.2763 129.605 71.8848 129.605C68.94 129.605 67.2163 132.785 67.2163 138.393C67.2163 143.884 68.7454 146.669 71.7652 146.669C74.1972 146.669 75.6483 144.945 76.1195 141.494H77.7267C77.216 145.693 74.9805 147.967 71.4521 147.967C66.9011 147.967 63.8043 144.121 63.8043 138.397C63.8043 132.548 66.9407 128.549 71.5696 128.549C73.2568 128.549 74.3158 128.982 75.5733 130.198L76.6292 128.196H77.2991L77.2981 128.193ZM83.7389 136.389C84.131 131.879 85.6196 129.567 88.1317 129.567C90.6813 129.567 91.9753 131.763 92.2084 136.389H83.7389ZM88.838 146.666C85.268 146.666 83.7004 143.92 83.6608 137.801H95.3488C95.2707 131.76 92.7972 128.543 88.1723 128.543C83.4622 128.543 80.5195 132.349 80.5195 138.39C80.5195 144.431 83.4612 147.96 88.5249 147.96C92.3685 147.96 94.8796 145.566 95.3873 141.527H93.8186C93.3484 144.861 91.6227 146.666 88.838 146.666ZM106.212 146.905C103.388 146.905 101.898 143.96 101.898 138.354C101.898 132.669 103.27 129.882 106.095 129.882C109 129.882 110.49 132.863 110.49 138.633C110.489 144.079 109.037 146.905 106.212 146.905ZM113.586 143.568V120.921C111.625 121.446 109.862 121.757 107.666 121.992V122.661C110.136 122.661 110.451 122.936 110.451 124.975V131.838C109 129.486 107.862 128.778 105.743 128.778C101.546 128.778 98.6026 132.739 98.6026 138.387C98.6026 144.037 101.582 147.995 105.86 147.995C108.096 147.995 109.626 146.975 110.723 144.781C110.879 146.271 110.879 146.427 111.273 147.916C112.88 147.405 113.548 147.249 115.863 146.975L116.451 146.898V146.232C113.822 146.154 113.586 145.96 113.586 143.568ZM121.155 136.389C121.547 131.879 123.036 129.567 125.548 129.567C128.098 129.567 129.39 131.763 129.625 136.389H121.155ZM126.255 146.666C122.683 146.666 121.117 143.92 121.076 137.801H132.764C132.685 131.76 130.215 128.543 125.588 128.543C120.878 128.543 117.937 132.349 117.937 138.39C117.937 144.431 120.878 147.96 125.941 147.96C129.784 147.96 132.294 145.566 132.802 141.527H131.232C130.765 144.861 129.036 146.666 126.255 146.666ZM136.095 148.001V141.448L136.959 141.41C137.663 144.981 139.312 146.708 142.059 146.708C144.37 146.708 146.098 145.177 146.098 143.181C146.098 141.847 145.354 140.946 143.429 140.081L141.939 139.412L140.136 138.589C137.269 137.256 136.368 136.157 136.368 133.881C136.368 130.781 138.798 128.666 142.252 128.666C143.783 128.666 144.923 129.019 146.254 129.917L146.919 128.31H147.625V134.39H146.721C146.366 131.25 145.074 129.763 142.604 129.763C140.526 129.763 138.913 131.175 138.913 133.019C138.913 134.586 139.502 135.099 143.072 136.667L144.721 137.375C147.699 138.665 148.762 139.924 148.762 142.239C148.762 145.535 146.133 147.884 142.449 147.884C140.643 147.884 139.231 147.413 137.741 146.238L136.796 148.001H136.095ZM170.577 134.467C172.655 134.467 173.831 134.821 174.735 135.721C175.638 136.627 176.15 138.312 176.15 140.192C176.15 144.115 174.186 146.314 170.696 146.314H169.284C167.204 146.314 166.852 145.998 166.852 144.272V134.464L170.577 134.467ZM166.849 122.58H170.184C173.48 122.58 174.93 124.191 174.93 127.837C174.93 129.641 174.499 130.938 173.637 131.955C172.773 132.939 171.715 133.249 169.521 133.249H166.852V122.579H166.849V122.58ZM178.42 127.758C178.42 125.719 177.558 123.917 176.067 122.776C174.735 121.796 173.207 121.366 170.653 121.366H160.338V122.346C163.164 122.504 163.554 122.817 163.554 124.935V143.959C163.554 146.078 163.238 146.349 160.338 146.588V147.532H170.261C173.162 147.532 174.734 147.176 176.383 146.157C178.343 144.902 179.637 142.509 179.637 140.042C179.637 137.919 178.734 135.999 177.205 134.827C176.383 134.199 175.518 133.842 174.105 133.57C176.932 132.506 178.42 130.505 178.42 127.758ZM186.04 136.389C186.434 131.879 187.924 129.567 190.436 129.567C192.983 129.567 194.28 131.763 194.513 136.389H186.04ZM191.142 146.666C187.572 146.666 186.001 143.92 185.963 137.801H197.654C197.575 131.76 195.102 128.543 190.473 128.543C185.766 128.543 182.824 132.349 182.824 138.39C182.824 144.431 185.766 147.96 190.825 147.96C194.669 147.96 197.18 145.566 197.689 141.527H196.12C195.653 144.861 193.927 146.666 191.142 146.666ZM199.728 130.15V129.486C202.004 129.17 203.338 128.859 204.904 128.309C205.103 129.215 205.222 130.231 205.298 131.722C206.711 129.602 208.317 128.663 210.594 128.663C212.949 128.663 214.986 129.874 215.774 131.799C216.168 132.742 216.363 133.838 216.363 135.327V144.742C216.363 146.43 216.756 146.743 219.146 146.86V147.645C217.068 147.448 216.284 147.41 214.872 147.41C213.418 147.41 212.635 147.448 210.593 147.645V146.86C212.711 146.785 213.222 146.391 213.222 144.822V135.211C213.222 131.799 212.203 130.424 209.694 130.424C207.023 130.424 205.613 132.113 205.613 135.327V144.822C205.613 146.391 206.126 146.785 208.166 146.86V147.645C206.126 147.448 205.342 147.41 203.929 147.41C202.556 147.41 201.73 147.448 199.691 147.645V146.86C202.081 146.743 202.476 146.43 202.476 144.742V132.036C202.436 130.424 202.201 130.191 200.241 130.191C200.119 130.191 199.926 130.15 199.728 130.15ZM220.67 147.532L231.3 130.035H226.475C223.927 130.035 223.296 130.583 221.885 134.114H221.104L222.007 129.015H235.5L224.83 146.51H229.417C232.087 146.51 233.184 145.453 234.361 141.881H235.185L234.167 147.532H220.67Z" fill="#838383"/>
<path d="M165.749 84.7389C170.975 76.0486 173.729 66.0965 173.715 55.9559C173.715 25.0519 148.661 0 117.758 0C86.8539 0 61.802 25.0529 61.802 55.9559C61.7876 66.0968 64.5427 76.0491 69.7699 84.7389L69.5662 84.9021L69.8094 84.8078C79.6034 101.048 97.4109 111.912 117.758 111.912C138.106 111.912 155.911 101.048 165.704 84.8078L165.947 84.9021L165.749 84.7389ZM166.84 55.9559C166.85 64.5251 164.603 72.9458 160.326 80.3714L125.711 52.4913L118.611 6.89885C145.322 7.35486 166.84 29.1357 166.84 55.9559ZM68.6816 55.9559C68.6816 29.1367 90.1979 7.35587 116.909 6.89885L109.809 52.4913L75.1934 80.3714C70.9179 72.9453 68.6721 64.5248 68.6816 55.9559ZM117.76 105.034C100.345 105.034 85.0583 95.9546 76.3475 82.2795L117.76 66.2585L159.172 82.2805C150.461 95.9546 135.177 105.034 117.76 105.034Z" fill="#838383"/>
</g>
<defs>
<clipPath id="clip0_341_2">
<rect width="235.519" height="148" fill="white"/>
</clipPath>
</defs>
</svg>
